<?xml version="1.0" encoding="iso-8859-1"?>
<!-- Uploaded to: SVG Repo, www.svgrepo.com, Generator: SVG Repo Mixer Tools -->
<svg height="800px" width="800px" version="1.1" id="Capa_1" xmlns="http://www.w3.org/2000/svg" xmlns:xlink="http://www.w3.org/1999/xlink" 
	 viewBox="0 0 377.242 377.242" xml:space="preserve">
<g>
	<g>
		<path style="fill:#010002;" d="M167.277,6.07c-6.05,3.288-11.874,7.757-17.399,13.3c3.825,1.39,8.234,2.655,13.175,3.688
			C164.264,17.067,165.66,11.345,167.277,6.07z"/>
		<path style="fill:#010002;" d="M160.654,36.859c-7.512-1.516-14.452-3.61-20.448-6.241c-4.929,6.504-9.553,13.879-13.807,22.065
			c4.952,5.036,15.717,10.239,30.992,13.569C158.148,56.579,159.204,46.567,160.654,36.859z"/>
		<path style="fill:#010002;" d="M188.394,247.579h0.495c3.324-22.173,7.494-42.854,12.471-61.793
			c-4.183,0.412-8.449,0.627-12.721,0.74c-4.266-0.107-8.527-0.322-12.715-0.74C180.9,204.725,185.071,225.406,188.394,247.579z"/>
		<path style="fill:#010002;" d="M155.499,111.976c0.06-8.216,0.292-19.333,0.961-31.744c-10.066-2.053-19.303-4.994-26.905-8.765
			c6.737,11.504,13.408,24.333,19.804,38.534C151.244,110.693,153.315,111.349,155.499,111.976z"/>
		<path style="fill:#010002;" d="M227.4,19.376c-5.525-5.543-11.337-10.012-17.399-13.3c1.617,5.275,3.013,10.997,4.231,16.994
			C219.171,22.031,223.593,20.766,227.4,19.376z"/>
		<path style="fill:#010002;" d="M207.816,115.025c-0.018-11.82-0.31-22.662-0.811-32.567c-6.038,0.728-12.214,1.08-18.372,1.223
			c-6.152-0.137-12.322-0.495-18.36-1.223c-0.507,9.899-0.794,20.741-0.811,32.567C180.184,117.776,201.366,117.68,207.816,115.025z
			"/>
		<path style="fill:#010002;" d="M219.905,66.252c15.275-3.33,26.027-8.533,30.98-13.569c-4.26-8.187-8.873-15.562-13.801-22.065
			c-6.003,2.631-12.936,4.726-20.454,6.241C218.085,46.567,219.141,56.579,219.905,66.252z"/>
		<path style="fill:#010002;" d="M205.937,169.514c0.919-12.339,1.551-25.789,1.784-40.36c-6.188,0.853-12.62,1.289-19.07,1.45
			c-6.456-0.161-12.877-0.597-19.07-1.45c0.233,14.571,0.859,28.02,1.784,40.36c0.167,0.567,0.328,1.152,0.495,1.724
			c7.476,1.993,25.669,1.802,33.593,0C205.603,170.666,205.77,170.081,205.937,169.514z"/>
		<path style="fill:#010002;" d="M206.134,68.555c-0.871-11.265-2.041-21.009-3.365-29.584c-5.346,1.593-21.713,1.492-28.229,0
			c-1.337,8.574-2.512,18.318-3.377,29.584C177.97,70.506,200.304,70.792,206.134,68.555z"/>
		<path style="fill:#010002;" d="M200.304,25.176c-2.363-11.152-5-19.291-7.494-25.019c-1.307-0.209-7.047-0.209-8.336,0
			c-2.506,5.722-5.137,13.867-7.5,25.019C182.69,26.411,195.787,26.315,200.304,25.176z"/>
		<path style="fill:#010002;" d="M227.925,109.995c6.396-14.201,13.061-27.03,19.81-38.534c-7.608,3.771-16.85,6.713-26.917,8.765
			c0.668,12.411,0.901,23.527,0.961,31.744C223.969,111.349,226.045,110.693,227.925,109.995z"/>
		<path style="fill:#010002;" d="M266.441,54.014c-1.784,2.631-3.604,5.358-5.406,8.175c-1.086,1.695-2.166,3.449-3.246,5.203
			c-2.071,3.353-4.141,6.713-6.212,10.311c-4.773,8.318-9.637,17.704-14.446,27.961c-2.81,5.961-5.573,12.244-8.312,18.873
			c-2.566,6.223-5.096,12.65-7.548,19.488c-2.936,8.175-5.728,16.916-8.425,25.986c-1.438,4.839-2.852,9.792-4.189,14.899
			c-6.934,26.111-12.62,55.683-16.284,88.883c-1.211,11.086-2.775,22.656-3.646,34.578c-0.913-11.946-2.619-23.438-3.849-34.578
			c-3.652-33.2-9.332-62.777-16.272-88.882c-1.354-5.108-2.751-10.06-4.195-14.899c-2.697-9.07-5.49-17.811-8.425-25.986
			c-2.452-6.838-4.982-13.264-7.554-19.488c-2.727-6.629-5.49-12.912-8.3-18.873c-4.809-10.251-9.672-19.643-14.446-27.961
			c-2.071-3.598-4.147-6.957-6.217-10.311c-1.08-1.754-2.166-3.509-3.246-5.203c-1.808-2.81-3.622-5.537-5.412-8.175
			C94.225,29.764,78.335,13.272,67.255,3.325c17.411,39.089,25.455,117.249,29.053,170.802c2.047,30.497,2.655,53.028,2.727,55.754
			c2.775,43.135,10.132,74.962,19.565,98.501c2.59,6.456,8.813,18.772,8.915,18.975c22.095,39.847,100.136,39.847,122.231,0
			c0.101-0.185,6.331-12.518,8.903-18.975c9.428-23.539,16.791-55.355,19.559-98.501c0.078-2.727,0.68-25.252,2.727-55.754
			c3.604-53.547,11.635-131.713,29.053-170.802C298.936,13.272,283.041,29.758,266.441,54.014z"/>
	</g>
</g>
</svg>